Batman.Under.The.Red.Hood.mkv
*****************************

TiTLE......  Batman: Under the Red Hood
YEAR.......  2010
GENRE......  Action | Animation
iMDB RATE..  User Rating: 7.9/10 (1,503 votes)
iMDB URL...  http://www.imdb.com/title/tt1569923/
*************************************************

Video
Duration                         : 1h 15mn
Overall bit rate                 : 7 861 Kbps
Width                            : 1 920 pixels
Height                           : 1 080 pixels
Display aspect ratio             : 16:9
Frame rate                       : 23.976 fps
Stream size                      : 3.28 GiB (79%)

Audio
Format                           : DTS
Format/Info                      : Digital Theater Systems
Bit rate                         : 1 510 Kbps
Channel(s)                       : 6 channels
Channel positions                : Front: L C R, Surround: L R, LFE
Sampling rate                    : 48.0 KHz
Resolution                       : 24 bits
Stream size                      : 819 MiB (19%)
Language                         : English

Subtitles: English (ass and srt)
********************************